<mxfile host="app.diagrams.net" modified="2023-09-14T16:23:44.264Z" agent="Mozilla/5.0 (Windows NT 10.0; Win64; x64) AppleWebKit/537.36 (KHTML, like Gecko) Chrome/116.0.0.0 Safari/537.36" etag="8SxDqYxJPgah7pwwQwrD" version="21.7.5" type="google">
  <diagram name="Page-1" id="e7e014a7-5840-1c2e-5031-d8a46d1fe8dd">
    <mxGraphModel grid="1" page="1" gridSize="10" guides="1" tooltips="1" connect="1" arrows="1" fold="1" pageScale="1" pageWidth="1169" pageHeight="826" background="#FFFFFF" math="0" shadow="1">
      <root>
        <mxCell id="0" />
        <mxCell id="1" parent="0" />
        <mxCell id="BDYhSFB5uRWk1OaHmBv7-13" value="&lt;b&gt;Residencia&lt;/b&gt;" style="swimlane;fontStyle=0;childLayout=stackLayout;horizontal=1;startSize=26;fillColor=none;horizontalStack=0;resizeParent=1;resizeParentMax=0;resizeLast=0;collapsible=1;marginBottom=0;whiteSpace=wrap;html=1;rounded=0;labelBackgroundColor=none;" vertex="1" parent="1">
          <mxGeometry x="400" y="40" width="230" height="184" as="geometry" />
        </mxCell>
        <mxCell id="BDYhSFB5uRWk1OaHmBv7-14" value="- moradores : List &amp;lt;Morador&amp;gt;" style="text;strokeColor=none;fillColor=none;align=left;verticalAlign=top;spacingLeft=4;spacingRight=4;overflow=hidden;rotatable=0;points=[[0,0.5],[1,0.5]];portConstraint=eastwest;whiteSpace=wrap;html=1;rounded=0;labelBackgroundColor=none;" vertex="1" parent="BDYhSFB5uRWk1OaHmBv7-13">
          <mxGeometry y="26" width="230" height="30" as="geometry" />
        </mxCell>
        <mxCell id="BDYhSFB5uRWk1OaHmBv7-15" value="- locaisPropicios : List &amp;lt;LocalPropicio&amp;gt;" style="text;strokeColor=none;fillColor=none;align=left;verticalAlign=top;spacingLeft=4;spacingRight=4;overflow=hidden;rotatable=0;points=[[0,0.5],[1,0.5]];portConstraint=eastwest;whiteSpace=wrap;html=1;rounded=0;labelBackgroundColor=none;" vertex="1" parent="BDYhSFB5uRWk1OaHmBv7-13">
          <mxGeometry y="56" width="230" height="30" as="geometry" />
        </mxCell>
        <mxCell id="FOdcc3nSq78q482ZQtaT-15" value="" style="line;strokeWidth=1;fillColor=none;align=left;verticalAlign=middle;spacingTop=-1;spacingLeft=3;spacingRight=3;rotatable=0;labelPosition=right;points=[];portConstraint=eastwest;rounded=0;labelBackgroundColor=none;" vertex="1" parent="BDYhSFB5uRWk1OaHmBv7-13">
          <mxGeometry y="86" width="230" height="8" as="geometry" />
        </mxCell>
        <mxCell id="FOdcc3nSq78q482ZQtaT-14" value="+ verificarLocaisPropicios() : void" style="text;strokeColor=none;fillColor=none;align=left;verticalAlign=top;spacingLeft=4;spacingRight=4;overflow=hidden;rotatable=0;points=[[0,0.5],[1,0.5]];portConstraint=eastwest;whiteSpace=wrap;html=1;rounded=0;labelBackgroundColor=none;" vertex="1" parent="BDYhSFB5uRWk1OaHmBv7-13">
          <mxGeometry y="94" width="230" height="30" as="geometry" />
        </mxCell>
        <mxCell id="FOdcc3nSq78q482ZQtaT-17" value="+ adiconarMorador(Morador)&amp;nbsp; : void&amp;nbsp;&amp;nbsp;" style="text;strokeColor=none;fillColor=none;align=left;verticalAlign=top;spacingLeft=4;spacingRight=4;overflow=hidden;rotatable=0;points=[[0,0.5],[1,0.5]];portConstraint=eastwest;whiteSpace=wrap;html=1;rounded=0;labelBackgroundColor=none;" vertex="1" parent="BDYhSFB5uRWk1OaHmBv7-13">
          <mxGeometry y="124" width="230" height="30" as="geometry" />
        </mxCell>
        <mxCell id="FOdcc3nSq78q482ZQtaT-16" value="+ removerMorador(Morador)&amp;nbsp; : void&amp;nbsp;" style="text;strokeColor=none;fillColor=none;align=left;verticalAlign=top;spacingLeft=4;spacingRight=4;overflow=hidden;rotatable=0;points=[[0,0.5],[1,0.5]];portConstraint=eastwest;whiteSpace=wrap;html=1;rounded=0;labelBackgroundColor=none;" vertex="1" parent="BDYhSFB5uRWk1OaHmBv7-13">
          <mxGeometry y="154" width="230" height="30" as="geometry" />
        </mxCell>
        <mxCell id="BDYhSFB5uRWk1OaHmBv7-5" value="Morador" style="swimlane;fontStyle=1;align=center;verticalAlign=top;childLayout=stackLayout;horizontal=1;startSize=20;horizontalStack=0;resizeParent=1;resizeParentMax=0;resizeLast=0;collapsible=1;marginBottom=0;whiteSpace=wrap;html=1;rounded=0;labelBackgroundColor=none;" vertex="1" parent="1">
          <mxGeometry x="20" y="40" width="280" height="238" as="geometry" />
        </mxCell>
        <mxCell id="b9Hbxe5NCGmn7ltP547A-26" style="edgeStyle=orthogonalEdgeStyle;rounded=0;orthogonalLoop=1;jettySize=auto;html=1;" edge="1" parent="BDYhSFB5uRWk1OaHmBv7-5" source="BDYhSFB5uRWk1OaHmBv7-6">
          <mxGeometry relative="1" as="geometry">
            <mxPoint x="380" y="35" as="targetPoint" />
          </mxGeometry>
        </mxCell>
        <mxCell id="BDYhSFB5uRWk1OaHmBv7-6" value="- tipo: enum(consciente, indiferente, negacionista)" style="text;strokeColor=none;fillColor=none;align=left;verticalAlign=top;spacingLeft=4;spacingRight=4;overflow=hidden;rotatable=0;points=[[0,0.5],[1,0.5]];portConstraint=eastwest;whiteSpace=wrap;html=1;rounded=0;labelBackgroundColor=none;" vertex="1" parent="BDYhSFB5uRWk1OaHmBv7-5">
          <mxGeometry y="20" width="280" height="30" as="geometry" />
        </mxCell>
        <mxCell id="FOdcc3nSq78q482ZQtaT-18" value="- acaoPreventiva: double" style="text;strokeColor=none;fillColor=none;align=left;verticalAlign=top;spacingLeft=4;spacingRight=4;overflow=hidden;rotatable=0;points=[[0,0.5],[1,0.5]];portConstraint=eastwest;whiteSpace=wrap;html=1;rounded=0;labelBackgroundColor=none;" vertex="1" parent="BDYhSFB5uRWk1OaHmBv7-5">
          <mxGeometry y="50" width="280" height="30" as="geometry" />
        </mxCell>
        <mxCell id="FOdcc3nSq78q482ZQtaT-19" value="- estadoSaude: enum(saudável, doente, morto)" style="text;strokeColor=none;fillColor=none;align=left;verticalAlign=top;spacingLeft=4;spacingRight=4;overflow=hidden;rotatable=0;points=[[0,0.5],[1,0.5]];portConstraint=eastwest;whiteSpace=wrap;html=1;rounded=0;labelBackgroundColor=none;" vertex="1" parent="BDYhSFB5uRWk1OaHmBv7-5">
          <mxGeometry y="80" width="280" height="30" as="geometry" />
        </mxCell>
        <mxCell id="FOdcc3nSq78q482ZQtaT-20" value="- chanceAcaoPreventivaBonus: double" style="text;strokeColor=none;fillColor=none;align=left;verticalAlign=top;spacingLeft=4;spacingRight=4;overflow=hidden;rotatable=0;points=[[0,0.5],[1,0.5]];portConstraint=eastwest;whiteSpace=wrap;html=1;rounded=0;labelBackgroundColor=none;" vertex="1" parent="BDYhSFB5uRWk1OaHmBv7-5">
          <mxGeometry y="110" width="280" height="30" as="geometry" />
        </mxCell>
        <mxCell id="BDYhSFB5uRWk1OaHmBv7-7" value="" style="line;strokeWidth=1;fillColor=none;align=left;verticalAlign=middle;spacingTop=-1;spacingLeft=3;spacingRight=3;rotatable=0;labelPosition=right;points=[];portConstraint=eastwest;rounded=0;labelBackgroundColor=none;" vertex="1" parent="BDYhSFB5uRWk1OaHmBv7-5">
          <mxGeometry y="140" width="280" height="8" as="geometry" />
        </mxCell>
        <mxCell id="BDYhSFB5uRWk1OaHmBv7-8" value="+ realizarAcaoPreventiva(): void" style="text;strokeColor=none;fillColor=none;align=left;verticalAlign=top;spacingLeft=4;spacingRight=4;overflow=hidden;rotatable=0;points=[[0,0.5],[1,0.5]];portConstraint=eastwest;whiteSpace=wrap;html=1;rounded=0;labelBackgroundColor=none;" vertex="1" parent="BDYhSFB5uRWk1OaHmBv7-5">
          <mxGeometry y="148" width="280" height="30" as="geometry" />
        </mxCell>
        <mxCell id="FOdcc3nSq78q482ZQtaT-21" value="+&amp;nbsp;ficarDoente(): void" style="text;strokeColor=none;fillColor=none;align=left;verticalAlign=top;spacingLeft=4;spacingRight=4;overflow=hidden;rotatable=0;points=[[0,0.5],[1,0.5]];portConstraint=eastwest;whiteSpace=wrap;html=1;rounded=0;labelBackgroundColor=none;" vertex="1" parent="BDYhSFB5uRWk1OaHmBv7-5">
          <mxGeometry y="178" width="280" height="30" as="geometry" />
        </mxCell>
        <mxCell id="FOdcc3nSq78q482ZQtaT-22" value="+ morrer(): void" style="text;strokeColor=none;fillColor=none;align=left;verticalAlign=top;spacingLeft=4;spacingRight=4;overflow=hidden;rotatable=0;points=[[0,0.5],[1,0.5]];portConstraint=eastwest;whiteSpace=wrap;html=1;rounded=0;labelBackgroundColor=none;" vertex="1" parent="BDYhSFB5uRWk1OaHmBv7-5">
          <mxGeometry y="208" width="280" height="30" as="geometry" />
        </mxCell>
        <mxCell id="b9Hbxe5NCGmn7ltP547A-8" style="edgeStyle=orthogonalEdgeStyle;rounded=0;orthogonalLoop=1;jettySize=auto;html=1;entryX=1;entryY=0.5;entryDx=0;entryDy=0;" edge="1" parent="1" source="BDYhSFB5uRWk1OaHmBv7-9" target="BDYhSFB5uRWk1OaHmBv7-15">
          <mxGeometry relative="1" as="geometry" />
        </mxCell>
        <mxCell id="BDYhSFB5uRWk1OaHmBv7-9" value="LocalPropicio" style="swimlane;fontStyle=1;align=center;verticalAlign=top;childLayout=stackLayout;horizontal=1;startSize=26;horizontalStack=0;resizeParent=1;resizeParentMax=0;resizeLast=0;collapsible=1;marginBottom=0;whiteSpace=wrap;html=1;rounded=0;labelBackgroundColor=none;" vertex="1" parent="1">
          <mxGeometry x="790" y="49" width="260" height="124" as="geometry" />
        </mxCell>
        <mxCell id="BDYhSFB5uRWk1OaHmBv7-10" value="- tipo: enum(garra, pneu, vaso, caixa d&#39;agua, piscina)" style="text;strokeColor=none;fillColor=none;align=left;verticalAlign=top;spacingLeft=4;spacingRight=4;overflow=hidden;rotatable=0;points=[[0,0.5],[1,0.5]];portConstraint=eastwest;whiteSpace=wrap;html=1;rounded=0;labelBackgroundColor=none;" vertex="1" parent="BDYhSFB5uRWk1OaHmBv7-9">
          <mxGeometry y="26" width="260" height="30" as="geometry" />
        </mxCell>
        <mxCell id="FOdcc3nSq78q482ZQtaT-23" value="- estado: boolean/enum(cheio de água, vazio)&amp;nbsp;" style="text;strokeColor=none;fillColor=none;align=left;verticalAlign=top;spacingLeft=4;spacingRight=4;overflow=hidden;rotatable=0;points=[[0,0.5],[1,0.5]];portConstraint=eastwest;whiteSpace=wrap;html=1;rounded=0;labelBackgroundColor=none;" vertex="1" parent="BDYhSFB5uRWk1OaHmBv7-9">
          <mxGeometry y="56" width="260" height="30" as="geometry" />
        </mxCell>
        <mxCell id="BDYhSFB5uRWk1OaHmBv7-11" value="" style="line;strokeWidth=1;fillColor=none;align=left;verticalAlign=middle;spacingTop=-1;spacingLeft=3;spacingRight=3;rotatable=0;labelPosition=right;points=[];portConstraint=eastwest;rounded=0;labelBackgroundColor=none;" vertex="1" parent="BDYhSFB5uRWk1OaHmBv7-9">
          <mxGeometry y="86" width="260" height="8" as="geometry" />
        </mxCell>
        <mxCell id="BDYhSFB5uRWk1OaHmBv7-12" value="+ tornarImproprio(): void" style="text;strokeColor=none;fillColor=none;align=left;verticalAlign=top;spacingLeft=4;spacingRight=4;overflow=hidden;rotatable=0;points=[[0,0.5],[1,0.5]];portConstraint=eastwest;whiteSpace=wrap;html=1;rounded=0;labelBackgroundColor=none;" vertex="1" parent="BDYhSFB5uRWk1OaHmBv7-9">
          <mxGeometry y="94" width="260" height="30" as="geometry" />
        </mxCell>
        <mxCell id="FOdcc3nSq78q482ZQtaT-1" value="Jogo" style="swimlane;fontStyle=1;align=center;verticalAlign=top;childLayout=stackLayout;horizontal=1;startSize=26;horizontalStack=0;resizeParent=1;resizeParentMax=0;resizeLast=0;collapsible=1;marginBottom=0;whiteSpace=wrap;html=1;rounded=0;labelBackgroundColor=none;" vertex="1" parent="1">
          <mxGeometry x="430" y="360" width="190" height="244" as="geometry" />
        </mxCell>
        <mxCell id="FOdcc3nSq78q482ZQtaT-2" value="- residencias: List &amp;lt;Residencia&amp;gt;" style="text;strokeColor=none;fillColor=none;align=left;verticalAlign=top;spacingLeft=4;spacingRight=4;overflow=hidden;rotatable=0;points=[[0,0.5],[1,0.5]];portConstraint=eastwest;whiteSpace=wrap;html=1;rounded=0;labelBackgroundColor=none;" vertex="1" parent="FOdcc3nSq78q482ZQtaT-1">
          <mxGeometry y="26" width="190" height="30" as="geometry" />
        </mxCell>
        <mxCell id="FOdcc3nSq78q482ZQtaT-33" value="- mosquitos : List &amp;lt;Mosquito&amp;gt;" style="text;strokeColor=none;fillColor=none;align=left;verticalAlign=top;spacingLeft=4;spacingRight=4;overflow=hidden;rotatable=0;points=[[0,0.5],[1,0.5]];portConstraint=eastwest;whiteSpace=wrap;html=1;rounded=0;labelBackgroundColor=none;" vertex="1" parent="FOdcc3nSq78q482ZQtaT-1">
          <mxGeometry y="56" width="190" height="30" as="geometry" />
        </mxCell>
        <mxCell id="FOdcc3nSq78q482ZQtaT-34" value="- moradoresMortos: int" style="text;strokeColor=none;fillColor=none;align=left;verticalAlign=top;spacingLeft=4;spacingRight=4;overflow=hidden;rotatable=0;points=[[0,0.5],[1,0.5]];portConstraint=eastwest;whiteSpace=wrap;html=1;rounded=0;labelBackgroundColor=none;" vertex="1" parent="FOdcc3nSq78q482ZQtaT-1">
          <mxGeometry y="86" width="190" height="30" as="geometry" />
        </mxCell>
        <mxCell id="FOdcc3nSq78q482ZQtaT-3" value="" style="line;strokeWidth=1;fillColor=none;align=left;verticalAlign=middle;spacingTop=-1;spacingLeft=3;spacingRight=3;rotatable=0;labelPosition=right;points=[];portConstraint=eastwest;rounded=0;labelBackgroundColor=none;" vertex="1" parent="FOdcc3nSq78q482ZQtaT-1">
          <mxGeometry y="116" width="190" height="8" as="geometry" />
        </mxCell>
        <mxCell id="FOdcc3nSq78q482ZQtaT-4" value="+ iniciarJogo(): void" style="text;strokeColor=none;fillColor=none;align=left;verticalAlign=top;spacingLeft=4;spacingRight=4;overflow=hidden;rotatable=0;points=[[0,0.5],[1,0.5]];portConstraint=eastwest;whiteSpace=wrap;html=1;rounded=0;labelBackgroundColor=none;" vertex="1" parent="FOdcc3nSq78q482ZQtaT-1">
          <mxGeometry y="124" width="190" height="30" as="geometry" />
        </mxCell>
        <mxCell id="FOdcc3nSq78q482ZQtaT-35" value="+ verificarMortes(): void" style="text;strokeColor=none;fillColor=none;align=left;verticalAlign=top;spacingLeft=4;spacingRight=4;overflow=hidden;rotatable=0;points=[[0,0.5],[1,0.5]];portConstraint=eastwest;whiteSpace=wrap;html=1;rounded=0;labelBackgroundColor=none;" vertex="1" parent="FOdcc3nSq78q482ZQtaT-1">
          <mxGeometry y="154" width="190" height="30" as="geometry" />
        </mxCell>
        <mxCell id="FOdcc3nSq78q482ZQtaT-37" value="+ time(): void" style="text;strokeColor=none;fillColor=none;align=left;verticalAlign=top;spacingLeft=4;spacingRight=4;overflow=hidden;rotatable=0;points=[[0,0.5],[1,0.5]];portConstraint=eastwest;whiteSpace=wrap;html=1;rounded=0;labelBackgroundColor=none;" vertex="1" parent="FOdcc3nSq78q482ZQtaT-1">
          <mxGeometry y="184" width="190" height="30" as="geometry" />
        </mxCell>
        <mxCell id="FOdcc3nSq78q482ZQtaT-36" style="text;strokeColor=none;fillColor=none;align=left;verticalAlign=top;spacingLeft=4;spacingRight=4;overflow=hidden;rotatable=0;points=[[0,0.5],[1,0.5]];portConstraint=eastwest;whiteSpace=wrap;html=1;rounded=0;labelBackgroundColor=none;" vertex="1" parent="FOdcc3nSq78q482ZQtaT-1">
          <mxGeometry y="214" width="190" height="30" as="geometry" />
        </mxCell>
        <mxCell id="FOdcc3nSq78q482ZQtaT-28" value="Mosquito" style="swimlane;fontStyle=1;align=center;verticalAlign=top;childLayout=stackLayout;horizontal=1;startSize=26;horizontalStack=0;resizeParent=1;resizeParentMax=0;resizeLast=0;collapsible=1;marginBottom=0;whiteSpace=wrap;html=1;" vertex="1" parent="1">
          <mxGeometry x="45" y="360" width="230" height="78" as="geometry" />
        </mxCell>
        <mxCell id="FOdcc3nSq78q482ZQtaT-31" value="+ colocarOvos(Residencia): void" style="text;strokeColor=none;fillColor=none;align=left;verticalAlign=top;spacingLeft=4;spacingRight=4;overflow=hidden;rotatable=0;points=[[0,0.5],[1,0.5]];portConstraint=eastwest;whiteSpace=wrap;html=1;" vertex="1" parent="FOdcc3nSq78q482ZQtaT-28">
          <mxGeometry y="26" width="230" height="26" as="geometry" />
        </mxCell>
        <mxCell id="FOdcc3nSq78q482ZQtaT-32" value="+&amp;nbsp;voarParaResidencia(residencia): void" style="text;strokeColor=none;fillColor=none;align=left;verticalAlign=top;spacingLeft=4;spacingRight=4;overflow=hidden;rotatable=0;points=[[0,0.5],[1,0.5]];portConstraint=eastwest;whiteSpace=wrap;html=1;" vertex="1" parent="FOdcc3nSq78q482ZQtaT-28">
          <mxGeometry y="52" width="230" height="26" as="geometry" />
        </mxCell>
      </root>
    </mxGraphModel>
  </diagram>
</mxfile>
